:version 1.10
:name ASF
:units
  mass 1
  length 1
  angle deg
:documentation
  ASF file generated by Kaydara
:root
  axis xyz
  order  tx ty tz rx ry rz
  position 0 0 0
  orientation 0 0 0
:bonedata
  begin
    id 1
    name lfemurDummy
    direction 0.61522 -0.761478 0.204097
    length 5.68318
    axis 0 -0 0 xyz
  end
  begin
    id 2
    name lfemur
    direction 0.34202 -0.939693 -5.84747e-008
    length 16.9147
    axis 0 -0 20 xyz
    dof rx ry rz
    limits( -inf , inf )
( -inf , inf )
( -inf , inf )

  end
  begin
    id 3
    name ltibia
    direction 0.34202 -0.939693 1.20839e-009
    length 18.0532
    axis 0 -0 20 xyz
    dof rz ry rx
    limits( -inf , inf )
( -inf , inf )
( -inf , inf )

  end
  begin
    id 4
    name lfoot
    direction 0.0841971 -0.23133 0.969225
    length 5.23822
    axis -90 7.62852e-016 20 xyz
    dof ry rx rz
    limits( -inf , inf )
( -inf , inf )
( -inf , inf )

  end
  begin
    id 5
    name ltoes
    direction 0 0 0
    length 0
    axis 0 0 0 xyz
    dof rz ry rx
    limits( -inf , inf )
( -inf , inf )
( -inf , inf )

  end
  begin
    id 6
    name rfemurDummy
    direction -0.625247 -0.75382 0.202044
    length 5.74091
    axis 0 -0 0 xyz
  end
  begin
    id 7
    name rfemur
    direction -0.34202 -0.939693 -1.47013e-008
    length 16.4922
    axis 0 -0 -20 xyz
    dof rx ry rz
    limits( -inf , inf )
( -inf , inf )
( -inf , inf )

  end
  begin
    id 8
    name rtibia
    direction -0.34202 -0.939693 -7.74345e-010
    length 18.2421
    axis 0 -0 -20 xyz
    dof rz ry rx
    limits( -inf , inf )
( -inf , inf )
( -inf , inf )

  end
  begin
    id 9
    name rfoot
    direction -0.124331 -0.341598 0.931586
    length 5.45787
    axis -90 -7.62852e-016 -20 xyz
    dof ry rx rz
    limits( -inf , inf )
( -inf , inf )
( -inf , inf )

  end
  begin
    id 10
    name rtoes
    direction 0 0 0
    length 0
    axis 0 0 0 xyz
    dof rz ry rx
    limits( -inf , inf )
( -inf , inf )
( -inf , inf )

  end
  begin
    id 11
    name lowerbackDummy
    direction 0 0 0
    length 0
    axis 0 -0 0 xyz
  end
  begin
    id 12
    name lowerback
    direction -0.0218484 0.994884 -0.0986304
    length 4.45607
    axis 0 -0 0 xyz
    dof rx ry rz
    limits( -inf , inf )
( -inf , inf )
( -inf , inf )

  end
  begin
    id 13
    name upperback
    direction -0.00973057 0.999717 -0.0217111
    length 4.47449
    axis 0 -0 0 xyz
    dof rx ry rz
    limits( -inf , inf )
( -inf , inf )
( -inf , inf )

  end
  begin
    id 14
    name thorax
    direction -0.000928171 0.999699 0.0245198
    length 4.50973
    axis 0 -0 0 xyz
    dof rx ry rz
    limits( -inf , inf )
( -inf , inf )
( -inf , inf )

  end
  begin
    id 15
    name rclavicle
    direction -0.9009 0.425937 -0.0834055
    length 7.28587
    axis 0 -0 0 xyz
    dof rx ry rz
    limits( -inf , inf )
( -inf , inf )
( -inf , inf )

  end
  begin
    id 16
    name rhumerus
    direction -1 -2.23604e-007 -1.42637e-007
    length 13.5704
    axis 180 30 90 xyz
    dof rx ry rz
    limits( -inf , inf )
( -inf , inf )
( -inf , inf )

  end
  begin
    id 17
    name rradius
    direction -1 5.68281e-008 -4.4952e-007
    length 8.06782
    axis 180 30 90 xyz
    dof rz ry rx
    limits( -inf , inf )
( -inf , inf )
( -inf , inf )

  end
  begin
    id 18
    name rwrist
    direction -1 1.51393e-007 1.38143e-007
    length 4.03391
    axis -90 -90 0 xyz
    dof rz rx ry
    limits( -inf , inf )
( -inf , inf )
( -inf , inf )

  end
  begin
    id 19
    name rthumb
    direction 0 0 0
    length 0
    axis 0 0 0 xyz
    dof ry rx rz
    limits( -inf , inf )
( -inf , inf )
( -inf , inf )

  end
  begin
    id 20
    name rhand
    direction -1 -3.34077e-007 -5.59631e-007
    length 1.29744
    axis -90 -90 0 xyz
    dof ry rx rz
    limits( -inf , inf )
( -inf , inf )
( -inf , inf )

  end
  begin
    id 21
    name rfingers
    direction 0 0 0
    length 0
    axis 0 0 0 xyz
    dof rz ry rx
    limits( -inf , inf )
( -inf , inf )
( -inf , inf )

  end
  begin
    id 22
    name lclavicle
    direction 0.940017 0.332249 -0.0773232
    length 8.29589
    axis 0 -0 0 xyz
    dof rx ry rz
    limits( -inf , inf )
( -inf , inf )
( -inf , inf )

  end
  begin
    id 23
    name lhumerus
    direction 1 7.41158e-008 -1.44768e-008
    length 12.0042
    axis 180 -30 -90 xyz
    dof rx ry rz
    limits( -inf , inf )
( -inf , inf )
( -inf , inf )

  end
  begin
    id 24
    name lradius
    direction 1 -1.32972e-007 3.10821e-007
    length 8.1902
    axis 180 -30 -90 xyz
    dof rz ry rx
    limits( -inf , inf )
( -inf , inf )
( -inf , inf )

  end
  begin
    id 25
    name lwrist
    direction 1 3.08957e-007 4.01394e-007
    length 4.09509
    axis -90 90 0 xyz
    dof rz rx ry
    limits( -inf , inf )
( -inf , inf )
( -inf , inf )

  end
  begin
    id 26
    name lthumb
    direction 0 0 0
    length 0
    axis 0 0 0 xyz
    dof ry rx rz
    limits( -inf , inf )
( -inf , inf )
( -inf , inf )

  end
  begin
    id 27
    name lhand
    direction 1 -1.64125e-007 -6.99514e-007
    length 1.37229
    axis -90 90 0 xyz
    dof ry rx rz
    limits( -inf , inf )
( -inf , inf )
( -inf , inf )

  end
  begin
    id 28
    name lfingers
    direction 0 0 0
    length 0
    axis 0 0 0 xyz
    dof rz ry rx
    limits( -inf , inf )
( -inf , inf )
( -inf , inf )

  end
  begin
    id 29
    name lowerneck
    direction -0.030798 0.998024 0.0547665
    length 3.93918
    axis 0 -0 0 xyz
    dof rx ry rz
    limits( -inf , inf )
( -inf , inf )
( -inf , inf )

  end
  begin
    id 30
    name upperneck
    direction 0.0531588 0.996611 -0.0627736
    length 3.95491
    axis 0 -0 0 xyz
    dof rx ry rz
    limits( -inf , inf )
( -inf , inf )
( -inf , inf )

  end
  begin
    id 31
    name head
    direction 0 0 0
    length 0
    axis 0 0 0 xyz
    dof rx ry rz
    limits( -inf , inf )
( -inf , inf )
( -inf , inf )

  end
:hierarchy
  begin
    root lfemurDummy rfemurDummy lowerbackDummy
    lfemurDummy lfemur
    lfemur ltibia
    ltibia lfoot
    lfoot ltoes
    rfemurDummy rfemur
    rfemur rtibia
    rtibia rfoot
    rfoot rtoes
    lowerbackDummy lowerback
    lowerback upperback
    upperback thorax
    thorax rclavicle lclavicle lowerneck
    rclavicle rhumerus
    rhumerus rradius
    rradius rwrist
    rwrist rthumb rhand
    rhand rfingers
    lclavicle lhumerus
    lhumerus lradius
    lradius lwrist
    lwrist lthumb lhand
    lhand lfingers
    lowerneck upperneck
    upperneck head
  end

:SAMPLES-PER-SECOND 30
:FULLY-SPECIFIED
:DEGREES
55
root  4.257866717 40.11333195 -1.894217777 -7.92199707 -32.67999268 4.536987305
lowerback  9.190199852 0.4215399921 -3.611989975
upperback  3.621860027 0.2103549987 -0.01111529954
thorax  -1.406020045 0.06459390372 1.998160005
lowerneck  -7.648489952 4.277420044 -3.747149944
upperneck  9.143110275 5.531139851 6.369100094
head  3.68295002 2.932549953 2.835669994
lclavicle  0 -9.442270133e-015 7.951389973e-016
lhumerus  4.166629791 -21.03319931 75.95469666
lradius  2.775073048e-031 -2.183532371e-031 141.8029938
lwrist  0 -1.765562519e-031 8.546839714
lhand  -1.496451383e-031 -27.76390076 20.11240005
lfingers  90 7.125020027 -90
lthumb  89.89689403 5.08795885 91.16245106
rclavicle  0 -9.442270133e-015 7.951389973e-016
rhumerus  14.29209995 8.706390381 -75.41059875
rradius  -2.591310876e-031 2.398739665e-031 137.2100067
rwrist  1.412450015e-030 -0 -12.44999981
rhand  -7.920061211e-032 -33.2840004 9.303460121
rfingers  -90 -7.125020027 -90
rthumb  -92.93752616 -24.25625642 -97.11982154
rfemur  -22.15629959 18.6651001 15.19839954
rtibia  -0 0 57.7643013
rfoot  -6.84574949e-032 -14.72679996 -2.267810106
rtoes  5.373923086 19.29304026 -105.8922705
lfemur  -15.21290016 7.14027977 -19.26889992
ltibia  -0 0 63.45299911
lfoot  4.415113821e-032 -1.340059996 -0.3208160102
ltoes  -4.250644065 -19.5611806 -102.515957
56
root  4.229800157 39.83955684 -1.877115467 -8.031982422 -32.88400269 4.471984863
lowerback  9.093110085 0.394167006 -3.719010115
upperback  3.553280115 0.1696349978 0.03911909834
thorax  -1.421169996 0.0449221991 2.114569902
lowerneck  -7.739480019 4.221739769 -3.915780067
upperneck  9.126930237 5.467969894 6.486750126
head  3.688040018 2.903100014 2.897949934
lclavicle  0 -9.442270133e-015 7.951389973e-016
lhumerus  4.441299915 -21.04660034 76.28669739
lradius  2.762681548e-031 -2.199189555e-031 141.4790039
lwrist  -1.412450015e-030 -0 8.638070107
lhand  -1.496451383e-031 -27.76390076 20.11240005
lfingers  90 7.125020027 -90
lthumb  89.89689403 5.08795885 91.16245106
rclavicle  0 -9.442270133e-015 7.951389973e-016
rhumerus  14.32380009 9.025670052 -75.063797
rradius  -2.590096141e-031 2.400051253e-031 137.1809998
rwrist  1.412450015e-030 1.765562519e-031 -12.3980999
rhand  -7.920061211e-032 -33.2840004 9.303460121
rfingers  -90 -7.125020027 -90
rthumb  -92.93752616 -24.25625642 -97.11982154
rfemur  -22.60969925 18.31040001 15.11760044
rtibia  -0 0 58.83810043
rfoot  -4.574867334e-032 -15.24370003 -1.068910003
rtoes  5.373923086 19.29304026 -105.8922705
lfemur  -13.50829983 6.477610111 -19.26810074
ltibia  -0 0 62.20650101
lfoot  6.66315349e-032 -6.459030151 -2.273060083
ltoes  -4.250644065 -19.5611806 -102.515957
57
root  4.203044336 39.62466623 -1.846391197 -8.270019531 -33.08000183 4.573974609
lowerback  9.030739784 0.3587880135 -3.895999908
upperback  3.464260101 0.1091720015 0.02669610083
thorax  -1.474910021 0.01644279994 2.207429886
lowerneck  -7.980899811 4.207709789 -4.151730061
upperneck  9.3520298 5.445270061 6.792059898
head  3.781320095 2.903879881 3.039949894
lclavicle  0 -9.442270133e-015 7.951389973e-016
lhumerus  4.709310055 -21.00130081 76.62819672
lradius  2.748112488e-031 -2.217368212e-031 141.1009979
lwrist  0 -3.531125038e-031 8.946559906
lhand  -1.496451383e-031 -27.76390076 20.11240005
lfingers  90 7.125020027 -90
lthumb  89.89689403 5.08795885 91.16245106
rclavicle  0 -9.442270133e-015 7.951389973e-016
rhumerus  14.33349991 9.422960281 -74.73600006
rradius  -2.588922951e-031 2.401316721e-031 137.1529999
rwrist  0 -0 -12.10659981
rhand  -7.920061211e-032 -33.2840004 9.303460121
rfingers  -90 -7.125020027 -90
rthumb  -92.93752616 -24.25625642 -97.11982154
rfemur  -22.82729912 17.90660095 14.88659954
rtibia  -0 0 59.93889999
rfoot  -4.876842385e-032 -15.92080021 0.3575469851
rtoes  5.373923086 19.29304026 -105.8922705
lfemur  -11.79570007 5.9584198 -19.46109962
ltibia  -0 0 61.15110016
lfoot  4.464008477e-032 -8.592320442 -2.302190065
ltoes  -4.250644065 -19.5611806 -102.515957
58
root  4.169222314 39.46577658 -1.798197791 -8.612976074 -33.23500061 4.812011719
lowerback  8.975060463 0.3378010094 -4.153890133
upperback  3.380059958 0.05907350034 -0.05270339921
thorax  -1.527500033 -0.006947310176 2.27534008
lowerneck  -8.141500473 4.186480045 -4.129489899
upperneck  9.475649834 5.401169777 6.912909985
head  3.844959974 2.892030001 3.078840017
lclavicle  0 -9.442270133e-015 7.951389973e-016
lhumerus  5.04144001 -21.02099991 76.93699646
lradius  2.732096923e-031 -2.237071846e-031 140.6889954
lwrist  -7.062250077e-031 -1.765562519e-031 9.370479584
lhand  -1.496451383e-031 -27.76390076 20.11240005
lfingers  90 7.125020027 -90
lthumb  89.89689403 5.08795885 91.16245106
rclavicle  0 -9.442270133e-015 7.951389973e-016
rhumerus  14.28499985 9.779080391 -74.37259674
rradius  -2.590473221e-031 2.399644251e-031 137.1900024
rwrist  0 -1.765562519e-031 -11.74009991
rhand  -7.920061211e-032 -33.2840004 9.303460121
rfingers  -90 -7.125020027 -90
rthumb  -92.93752616 -24.25625642 -97.11982154
rfemur  -22.84869957 17.58309937 14.52169991
rtibia  -0 0 60.75099945
rfoot  -5.76425087e-032 -16.82909966 1.540150046
rtoes  5.373923086 19.29304026 -105.8922705
lfemur  -10.21700001 5.474090099 -19.85849953
ltibia  -0 0 60.14210129
lfoot  4.505571298e-032 -11.57719994 -1.20796001
ltoes  -4.250644065 -19.5611806 -102.515957
